<svg width="156" height="43" viewBox="0 0 156 43" fill="none" xmlns="http://www.w3.org/2000/svg">
<path d="M12.64 27.776C11.808 28.224 10.72 28.544 9.984 28.544C8.576 28.544 7.648 27.712 7.648 25.792V19.488H12.864V16.032H7.648V11.2H3.424V16.032H0V19.488H3.424V26.112C3.424 30.496 5.92 32.48 9.696 32.48C11.04 32.48 12.192 32.192 13.856 31.296L12.64 27.776ZM25.363 15.552C23.251 15.552 21.587 16.224 20.339 17.472V8.95996H16.115V32H20.339V24.928C20.339 21.024 21.907 19.424 24.307 19.424C26.259 19.424 27.539 20.928 27.539 23.168V32H31.763V22.272C31.763 18.304 29.203 15.552 25.363 15.552ZM50.937 23.712C50.777 18.848 47.097 15.552 42.841 15.552C38.265 15.552 34.585 19.008 34.585 24.032C34.585 29.056 38.265 32.48 42.777 32.48C46.265 32.48 49.113 30.88 50.521 27.552L46.745 26.752C45.593 28.704 44.025 28.864 42.777 28.864C40.825 28.864 39.193 27.456 38.777 25.152H50.937V23.712ZM42.841 19.232C44.537 19.232 46.073 20.128 46.617 22.176H38.905C39.417 20.192 41.241 19.232 42.841 19.232ZM69.2183 23.712C69.0583 18.848 65.3783 15.552 61.1223 15.552C56.5463 15.552 52.8663 19.008 52.8663 24.032C52.8663 29.056 56.5463 32.48 61.0583 32.48C64.5463 32.48 67.3943 30.88 68.8022 27.552L65.0263 26.752C63.8743 28.704 62.3063 28.864 61.0583 28.864C59.1063 28.864 57.4743 27.456 57.0583 25.152H69.2183V23.712ZM61.1223 19.232C62.8183 19.232 64.3543 20.128 64.8983 22.176H57.1863C57.6983 20.192 59.5223 19.232 61.1223 19.232ZM79.6915 28.608C77.0355 28.608 75.2435 26.784 75.2435 24.032C75.2435 21.312 77.0355 19.424 79.6915 19.424C81.5475 19.424 83.0515 20.352 83.6275 22.592L87.6915 21.44C86.6355 17.856 83.4035 15.552 79.6915 15.552C75.0195 15.552 71.1475 19.008 71.1475 24.032C71.1475 29.056 75.0195 32.48 79.6915 32.48C83.4995 32.48 86.7955 30.144 87.6915 26.496L83.7875 25.504C83.0515 27.712 81.5475 28.608 79.6915 28.608ZM98.3203 15.648C93.5523 15.648 89.6163 19.008 89.6163 24.032C89.6163 29.056 93.5523 32.416 98.3203 32.416C102.992 32.416 106.928 29.056 106.928 24.032C106.928 19.008 102.992 15.648 98.3203 15.648ZM98.3203 28.8C96.0163 28.8 93.7123 27.008 93.7123 24.032C93.7123 21.056 96.0163 19.264 98.3203 19.264C100.528 19.264 102.832 21.056 102.832 24.032C102.832 27.008 100.528 28.8 98.3203 28.8ZM126.179 8.95996H121.955V17.312C120.611 16.192 118.851 15.552 116.675 15.552C112.611 15.552 108.835 19.008 108.835 24.032C108.835 29.056 112.611 32.48 116.675 32.48C118.851 32.48 120.611 31.84 121.955 30.752V32H126.179V8.95996ZM117.411 28.8C114.851 28.8 112.931 26.976 112.931 24.032C112.931 21.088 114.851 19.232 117.411 19.232C119.683 19.232 121.955 21.088 121.955 24.032C121.955 26.976 119.683 28.8 117.411 28.8ZM145.718 23.712C145.558 18.848 141.878 15.552 137.622 15.552C133.046 15.552 129.366 19.008 129.366 24.032C129.366 29.056 133.046 32.48 137.558 32.48C141.046 32.48 143.894 30.88 145.302 27.552L141.526 26.752C140.374 28.704 138.806 28.864 137.558 28.864C135.606 28.864 133.974 27.456 133.558 25.152H145.718V23.712ZM137.622 19.232C139.318 19.232 140.854 20.128 141.398 22.176H133.686C134.198 20.192 136.022 19.232 137.622 19.232Z" fill="white"/>
<path fill-rule="evenodd" clip-rule="evenodd" d="M153 32C154.657 32 156 30.6569 156 29C156 27.3431 154.657 26 153 26C151.343 26 150 27.3431 150 29C150 30.6569 151.343 32 153 32ZM153.777 31.0163L154.28 30.5106L153.271 29.5051L154.025 28.7474L153.52 28.2438L152.765 29.0015L152.259 28.4979L153.517 27.2344L153.012 26.7308L151.25 28.5L153.777 31.0163Z" fill="white"/>
</svg>
